<?xml version="1.0" encoding="UTF-8" standalone="no"?>
<svg width="10.5833mm" height="10.5833mm"
 xmlns="http://www.w3.org/2000/svg" xmlns:xlink="http://www.w3.org/1999/xlink"  version="1.2" baseProfile="tiny">
<desc>Created by EvoPdf</desc>
<defs>
</defs>
<g fill="none" stroke="black" stroke-width="1" fill-rule="evenodd" stroke-linecap="square" stroke-linejoin="bevel" >

<g fill="#B7BFC6" fill-opacity="1" stroke="#B7BFC6" stroke-opacity="1" stroke-width="1" stroke-linecap="butt" stroke-linejoin="miter" stroke-miterlimit="2" transform="matrix(1,0,0,1,0,0)"
>
</g>

<g fill="#B7BFC6" fill-opacity="1" stroke="#B7BFC6" stroke-opacity="1" stroke-width="1" stroke-linecap="butt" stroke-linejoin="miter" stroke-miterlimit="2" transform="matrix(1,0,0,1,0,0)"
>
</g>

<g fill="#B7BFC6" fill-opacity="1" stroke="#B7BFC6" stroke-opacity="1" stroke-width="1" stroke-linecap="butt" stroke-linejoin="miter" stroke-miterlimit="2" transform="matrix(1,0,0,1,0,0)"
>
</g>

<g fill="#B7BFC6" fill-opacity="1" stroke="#B7BFC6" stroke-opacity="1" stroke-width="1" stroke-linecap="butt" stroke-linejoin="miter" stroke-miterlimit="2" transform="matrix(1,0,0,1,0,0)"
>
</g>

<g fill="#B7BFC6" fill-opacity="1" stroke="#B7BFC6" stroke-opacity="1" stroke-width="1" stroke-linecap="butt" stroke-linejoin="miter" stroke-miterlimit="2" transform="matrix(0.75,0,0,0.75,8,16)"
>
</g>

<g fill="#B7BFC6" fill-opacity="1" stroke="none" transform="matrix(0.75,0,0,0.75,8,16)"
>
<path vector-effect="none" fill-rule="nonzero" d="M24,2 L24,1 C24,0.4 23.6,0 23,0 C22.4,0 22,0.4 22,1 L22,2 L10,2 L10,1 C10,0.4 9.6,0 9,0 C8.4,0 8,0.4 8,1 L8,2 C4.7,2 2,4.7 2,8 L2,24 C2,27.3 4.7,30 8,30 L24,30 C27.3,30 30,27.3 30,24 L30,8 C30,4.7 27.3,2 24,2 M8,4 L8,5 C8,5.6 8.4,6 9,6 C9.6,6 10,5.6 10,5 L10,4 L22,4 L22,5 C22,5.6 22.4,6 23,6 C23.6,6 24,5.6 24,5 L24,4 C26.2,4 28,5.8 28,8 L28,10 L4,10 L4,8 C4,5.8 5.8,4 8,4 M24,28 L8,28 C5.8,28 4,26.2 4,24 L4,12 L28,12 L28,24 C28,26.2 26.2,28 24,28 "/>
</g>

<g fill="#B7BFC6" fill-opacity="1" stroke="#B7BFC6" stroke-opacity="1" stroke-width="1" stroke-linecap="butt" stroke-linejoin="miter" stroke-miterlimit="2" transform="matrix(0.75,0,0,0.75,8,16)"
>
</g>

<g fill="#B7BFC6" fill-opacity="1" stroke="#B7BFC6" stroke-opacity="1" stroke-width="1" stroke-linecap="butt" stroke-linejoin="miter" stroke-miterlimit="2" transform="matrix(0.75,0,0,0.75,8,16)"
>
</g>

<g fill="#B7BFC6" fill-opacity="1" stroke="#B7BFC6" stroke-opacity="1" stroke-width="1" stroke-linecap="butt" stroke-linejoin="miter" stroke-miterlimit="2" transform="matrix(1,0,0,1,0,0)"
>
</g>

<g fill="#B7BFC6" fill-opacity="1" stroke="#B7BFC6" stroke-opacity="1" stroke-width="1" stroke-linecap="butt" stroke-linejoin="miter" stroke-miterlimit="2" transform="matrix(1,0,0,1,0,0)"
>
</g>

<g fill="#B7BFC6" fill-opacity="1" stroke="#B7BFC6" stroke-opacity="1" stroke-width="1" stroke-linecap="butt" stroke-linejoin="miter" stroke-miterlimit="2" transform="matrix(1,0,0,1,0,0)"
>
</g>

<g fill="#B7BFC6" fill-opacity="1" stroke="#B7BFC6" stroke-opacity="1" stroke-width="1" stroke-linecap="butt" stroke-linejoin="miter" stroke-miterlimit="2" transform="matrix(1,0,0,1,0,0)"
>
</g>

<g fill="#B7BFC6" fill-opacity="1" stroke="#B7BFC6" stroke-opacity="1" stroke-width="1" stroke-linecap="butt" stroke-linejoin="miter" stroke-miterlimit="2" transform="matrix(0.75,0,0,0.75,8,16)"
>
</g>

<g fill="#B7BFC6" fill-opacity="1" stroke="#B7BFC6" stroke-opacity="1" stroke-width="1" stroke-linecap="butt" stroke-linejoin="miter" stroke-miterlimit="2" transform="matrix(1,0,0,1,0,0)"
>
</g>

<g fill="#B7BFC6" fill-opacity="1" stroke="#B7BFC6" stroke-opacity="1" stroke-width="1" stroke-linecap="butt" stroke-linejoin="miter" stroke-miterlimit="2" transform="matrix(1,0,0,1,0,0)"
>
</g>

<g fill="#B7BFC6" fill-opacity="1" stroke="#B7BFC6" stroke-opacity="1" stroke-width="1" stroke-linecap="butt" stroke-linejoin="miter" stroke-miterlimit="2" transform="matrix(1,0,0,1,0,0)"
>
</g>

<g fill="#B7BFC6" fill-opacity="1" stroke="#B7BFC6" stroke-opacity="1" stroke-width="1" stroke-linecap="butt" stroke-linejoin="miter" stroke-miterlimit="2" transform="matrix(1,0,0,1,0,0)"
>
</g>

<g fill="#B7BFC6" fill-opacity="1" stroke="#B7BFC6" stroke-opacity="1" stroke-width="1" stroke-linecap="butt" stroke-linejoin="miter" stroke-miterlimit="2" transform="matrix(1,0,0,1,0,0)"
>
</g>

<g fill="#B7BFC6" fill-opacity="1" stroke="#B7BFC6" stroke-opacity="1" stroke-width="1" stroke-linecap="butt" stroke-linejoin="miter" stroke-miterlimit="2" transform="matrix(1,0,0,1,0,0)"
>
</g>
</g>
</svg>
