<?xml version="1.0" encoding="UTF-8" standalone="no"?>
<svg width="10.5833mm" height="10.5833mm"
 xmlns="http://www.w3.org/2000/svg" xmlns:xlink="http://www.w3.org/1999/xlink"  version="1.2" baseProfile="tiny">
<desc>Created by EvoPdf</desc>
<defs>
</defs>
<g fill="none" stroke="black" stroke-width="1" fill-rule="evenodd" stroke-linecap="square" stroke-linejoin="bevel" >

<g fill="#B7BFC6" fill-opacity="1" stroke="#B7BFC6" stroke-opacity="1" stroke-width="1" stroke-linecap="butt" stroke-linejoin="miter" stroke-miterlimit="2" transform="matrix(1,0,0,1,0,0)"
>
</g>

<g fill="#B7BFC6" fill-opacity="1" stroke="#B7BFC6" stroke-opacity="1" stroke-width="1" stroke-linecap="butt" stroke-linejoin="miter" stroke-miterlimit="2" transform="matrix(1,0,0,1,0,0)"
>
</g>

<g fill="#B7BFC6" fill-opacity="1" stroke="#B7BFC6" stroke-opacity="1" stroke-width="1" stroke-linecap="butt" stroke-linejoin="miter" stroke-miterlimit="2" transform="matrix(1,0,0,1,0,0)"
>
</g>

<g fill="#B7BFC6" fill-opacity="1" stroke="#B7BFC6" stroke-opacity="1" stroke-width="1" stroke-linecap="butt" stroke-linejoin="miter" stroke-miterlimit="2" transform="matrix(1,0,0,1,0,0)"
>
</g>

<g fill="#B7BFC6" fill-opacity="1" stroke="#B7BFC6" stroke-opacity="1" stroke-width="1" stroke-linecap="butt" stroke-linejoin="miter" stroke-miterlimit="2" transform="matrix(0.75,0,0,0.75,8,16)"
>
</g>

<g fill="#B7BFC6" fill-opacity="1" stroke="none" transform="matrix(0.75,0,0,0.75,8,16)"
>
<path vector-effect="none" fill-rule="nonzero" d="M10,13.5 C10.8,13.5 11.5,14.2 11.5,15 C11.5,15.8 10.8,16.5 10,16.5 C9.2,16.5 8.5,15.8 8.5,15 C8.5,14.2 9.2,13.5 10,13.5 M23,14 L15,14 C14.4,14 14,14.4 14,15 C14,15.6 14.4,16 15,16 L23,16 C23.6,16 24,15.6 24,15 C24,14.4 23.6,14 23,14 M23,20 L15,20 C14.4,20 14,20.4 14,21 C14,21.6 14.4,22 15,22 L23,22 C23.6,22 24,21.6 24,21 C24,20.4 23.6,20 23,20 M10,19.5 C10.8,19.5 11.5,20.2 11.5,21 C11.5,21.8 10.8,22.5 10,22.5 C9.2,22.5 8.5,21.8 8.5,21 C8.5,20.2 9.2,19.5 10,19.5 M24,2 L21.8,2 C21.4,0.8 20.3,0 19,0 L13,0 C11.7,0 10.6,0.8 10.2,2 L8,2 C4.7,2 2,4.7 2,8 L2,26 C2,29.3 4.7,32 8,32 L24,32 C27.3,32 30,29.3 30,26 L30,8 C30,4.7 27.3,2 24,2 M13,2 L19,2 C19.6,2 20,2.4 20,3 L20,5 C20,5.6 19.6,6 19,6 L13,6 C12.4,6 12,5.6 12,5 L12,3 C12,2.4 12.4,2 13,2 M28,26 C28,28.2 26.2,30 24,30 L8,30 C5.8,30 4,28.2 4,26 L4,8 C4,5.8 5.8,4 8,4 L10,4 L10,5 C10,6.7 11.3,8 13,8 L19,8 C20.7,8 22,6.7 22,5 L22,4 L24,4 C26.2,4 28,5.8 28,8 L28,26"/>
</g>

<g fill="#B7BFC6" fill-opacity="1" stroke="#B7BFC6" stroke-opacity="1" stroke-width="1" stroke-linecap="butt" stroke-linejoin="miter" stroke-miterlimit="2" transform="matrix(0.75,0,0,0.75,8,16)"
>
</g>

<g fill="#B7BFC6" fill-opacity="1" stroke="#B7BFC6" stroke-opacity="1" stroke-width="1" stroke-linecap="butt" stroke-linejoin="miter" stroke-miterlimit="2" transform="matrix(0.75,0,0,0.75,8,16)"
>
</g>

<g fill="#B7BFC6" fill-opacity="1" stroke="#B7BFC6" stroke-opacity="1" stroke-width="1" stroke-linecap="butt" stroke-linejoin="miter" stroke-miterlimit="2" transform="matrix(1,0,0,1,0,0)"
>
</g>

<g fill="#B7BFC6" fill-opacity="1" stroke="#B7BFC6" stroke-opacity="1" stroke-width="1" stroke-linecap="butt" stroke-linejoin="miter" stroke-miterlimit="2" transform="matrix(1,0,0,1,0,0)"
>
</g>

<g fill="#B7BFC6" fill-opacity="1" stroke="#B7BFC6" stroke-opacity="1" stroke-width="1" stroke-linecap="butt" stroke-linejoin="miter" stroke-miterlimit="2" transform="matrix(1,0,0,1,0,0)"
>
</g>

<g fill="#B7BFC6" fill-opacity="1" stroke="#B7BFC6" stroke-opacity="1" stroke-width="1" stroke-linecap="butt" stroke-linejoin="miter" stroke-miterlimit="2" transform="matrix(1,0,0,1,0,0)"
>
</g>

<g fill="#B7BFC6" fill-opacity="1" stroke="#B7BFC6" stroke-opacity="1" stroke-width="1" stroke-linecap="butt" stroke-linejoin="miter" stroke-miterlimit="2" transform="matrix(0.75,0,0,0.75,8,16)"
>
</g>

<g fill="#B7BFC6" fill-opacity="1" stroke="#B7BFC6" stroke-opacity="1" stroke-width="1" stroke-linecap="butt" stroke-linejoin="miter" stroke-miterlimit="2" transform="matrix(1,0,0,1,0,0)"
>
</g>

<g fill="#B7BFC6" fill-opacity="1" stroke="#B7BFC6" stroke-opacity="1" stroke-width="1" stroke-linecap="butt" stroke-linejoin="miter" stroke-miterlimit="2" transform="matrix(1,0,0,1,0,0)"
>
</g>

<g fill="#B7BFC6" fill-opacity="1" stroke="#B7BFC6" stroke-opacity="1" stroke-width="1" stroke-linecap="butt" stroke-linejoin="miter" stroke-miterlimit="2" transform="matrix(1,0,0,1,0,0)"
>
</g>

<g fill="#B7BFC6" fill-opacity="1" stroke="#B7BFC6" stroke-opacity="1" stroke-width="1" stroke-linecap="butt" stroke-linejoin="miter" stroke-miterlimit="2" transform="matrix(1,0,0,1,0,0)"
>
</g>

<g fill="#B7BFC6" fill-opacity="1" stroke="#B7BFC6" stroke-opacity="1" stroke-width="1" stroke-linecap="butt" stroke-linejoin="miter" stroke-miterlimit="2" transform="matrix(1,0,0,1,0,0)"
>
</g>

<g fill="#B7BFC6" fill-opacity="1" stroke="#B7BFC6" stroke-opacity="1" stroke-width="1" stroke-linecap="butt" stroke-linejoin="miter" stroke-miterlimit="2" transform="matrix(1,0,0,1,0,0)"
>
</g>
</g>
</svg>
