<?xml version="1.0" encoding="UTF-8" standalone="no"?>
<svg width="7.9375mm" height="7.9375mm"
 xmlns="http://www.w3.org/2000/svg" xmlns:xlink="http://www.w3.org/1999/xlink"  version="1.2" baseProfile="tiny">
<desc>Created by EvoPdf</desc>
<defs>
</defs>
<g fill="none" stroke="black" stroke-width="1" fill-rule="evenodd" stroke-linecap="square" stroke-linejoin="bevel" >

<g fill="#646F79" fill-opacity="1" stroke="#646F79" stroke-opacity="1" stroke-width="1" stroke-linecap="butt" stroke-linejoin="miter" stroke-miterlimit="2" transform="matrix(1,0,0,1,0,0)"
>
</g>

<g fill="#646F79" fill-opacity="1" stroke="#646F79" stroke-opacity="1" stroke-width="1" stroke-linecap="butt" stroke-linejoin="miter" stroke-miterlimit="2" transform="matrix(1,0,0,1,0,0)"
>
</g>

<g fill="#646F79" fill-opacity="1" stroke="#646F79" stroke-opacity="1" stroke-width="1" stroke-linecap="butt" stroke-linejoin="miter" stroke-miterlimit="2" transform="matrix(1,0,0,1,0,0)"
>
</g>

<g fill="#646F79" fill-opacity="1" stroke="#646F79" stroke-opacity="1" stroke-width="1" stroke-linecap="butt" stroke-linejoin="miter" stroke-miterlimit="2" transform="matrix(1,0,0,1,0,0)"
>
</g>

<g fill="#646F79" fill-opacity="1" stroke="#646F79" stroke-opacity="1" stroke-width="1" stroke-linecap="butt" stroke-linejoin="miter" stroke-miterlimit="2" transform="matrix(0.4375,0,0,0.4375,8,16)"
>
</g>

<g fill="#646F79" fill-opacity="1" stroke="none" transform="matrix(0.4375,0,0,0.4375,8,16)"
>
<path vector-effect="none" fill-rule="nonzero" d="M14,5.5 C14,7.2 12.7,8.5 11,8.5 C9.3,8.5 8,7.2 8,5.5 C8,3.8 9.3,2.5 11,2.5 C12.7,2.5 14,3.8 14,5.5 M21,8.5 C22.7,8.5 24,7.2 24,5.5 C24,3.8 22.7,2.5 21,2.5 C19.3,2.5 18,3.8 18,5.5 C18,7.2 19.3,8.5 21,8.5 M11,12.5 C9.3,12.5 8,13.8 8,15.5 C8,17.2 9.3,18.5 11,18.5 C12.7,18.5 14,17.2 14,15.5 C14,13.8 12.7,12.5 11,12.5 M21,12.5 C19.3,12.5 18,13.8 18,15.5 C18,17.2 19.3,18.5 21,18.5 C22.7,18.5 24,17.2 24,15.5 C24,13.8 22.7,12.5 21,12.5 M11,22.5 C9.3,22.5 8,23.8 8,25.5 C8,27.2 9.3,28.5 11,28.5 C12.7,28.5 14,27.2 14,25.5 C14,23.8 12.7,22.5 11,22.5 M21,22.5 C19.3,22.5 18,23.8 18,25.5 C18,27.2 19.3,28.5 21,28.5 C22.7,28.5 24,27.2 24,25.5 C24,23.8 22.7,22.5 21,22.5 "/>
</g>

<g fill="#646F79" fill-opacity="1" stroke="#646F79" stroke-opacity="1" stroke-width="1" stroke-linecap="butt" stroke-linejoin="miter" stroke-miterlimit="2" transform="matrix(0.4375,0,0,0.4375,8,16)"
>
</g>

<g fill="#646F79" fill-opacity="1" stroke="#646F79" stroke-opacity="1" stroke-width="1" stroke-linecap="butt" stroke-linejoin="miter" stroke-miterlimit="2" transform="matrix(0.4375,0,0,0.4375,8,16)"
>
</g>

<g fill="#646F79" fill-opacity="1" stroke="#646F79" stroke-opacity="1" stroke-width="1" stroke-linecap="butt" stroke-linejoin="miter" stroke-miterlimit="2" transform="matrix(1,0,0,1,0,0)"
>
</g>

<g fill="#646F79" fill-opacity="1" stroke="#646F79" stroke-opacity="1" stroke-width="1" stroke-linecap="butt" stroke-linejoin="miter" stroke-miterlimit="2" transform="matrix(1,0,0,1,0,0)"
>
</g>

<g fill="#646F79" fill-opacity="1" stroke="#646F79" stroke-opacity="1" stroke-width="1" stroke-linecap="butt" stroke-linejoin="miter" stroke-miterlimit="2" transform="matrix(1,0,0,1,0,0)"
>
</g>

<g fill="#646F79" fill-opacity="1" stroke="#646F79" stroke-opacity="1" stroke-width="1" stroke-linecap="butt" stroke-linejoin="miter" stroke-miterlimit="2" transform="matrix(1,0,0,1,0,0)"
>
</g>

<g fill="#646F79" fill-opacity="1" stroke="#646F79" stroke-opacity="1" stroke-width="1" stroke-linecap="butt" stroke-linejoin="miter" stroke-miterlimit="2" transform="matrix(0.4375,0,0,0.4375,8,16)"
>
</g>

<g fill="#646F79" fill-opacity="1" stroke="#646F79" stroke-opacity="1" stroke-width="1" stroke-linecap="butt" stroke-linejoin="miter" stroke-miterlimit="2" transform="matrix(1,0,0,1,0,0)"
>
</g>

<g fill="#646F79" fill-opacity="1" stroke="#646F79" stroke-opacity="1" stroke-width="1" stroke-linecap="butt" stroke-linejoin="miter" stroke-miterlimit="2" transform="matrix(1,0,0,1,0,0)"
>
</g>

<g fill="#646F79" fill-opacity="1" stroke="#646F79" stroke-opacity="1" stroke-width="1" stroke-linecap="butt" stroke-linejoin="miter" stroke-miterlimit="2" transform="matrix(1,0,0,1,0,0)"
>
</g>

<g fill="#646F79" fill-opacity="1" stroke="#646F79" stroke-opacity="1" stroke-width="1" stroke-linecap="butt" stroke-linejoin="miter" stroke-miterlimit="2" transform="matrix(1,0,0,1,0,0)"
>
</g>

<g fill="#646F79" fill-opacity="1" stroke="#646F79" stroke-opacity="1" stroke-width="1" stroke-linecap="butt" stroke-linejoin="miter" stroke-miterlimit="2" transform="matrix(1,0,0,1,0,0)"
>
</g>

<g fill="#646F79" fill-opacity="1" stroke="#646F79" stroke-opacity="1" stroke-width="1" stroke-linecap="butt" stroke-linejoin="miter" stroke-miterlimit="2" transform="matrix(1,0,0,1,0,0)"
>
</g>
</g>
</svg>
