<?xml version="1.0" encoding="UTF-8" standalone="no"?>
<svg width="10.5833mm" height="10.5833mm"
 xmlns="http://www.w3.org/2000/svg" xmlns:xlink="http://www.w3.org/1999/xlink"  version="1.2" baseProfile="tiny">
<desc>Created by EvoPdf</desc>
<defs>
</defs>
<g fill="none" stroke="black" stroke-width="1" fill-rule="evenodd" stroke-linecap="square" stroke-linejoin="bevel" >

<g fill="#B7BFC6" fill-opacity="1" stroke="#B7BFC6" stroke-opacity="1" stroke-width="1" stroke-linecap="butt" stroke-linejoin="miter" stroke-miterlimit="2" transform="matrix(1,0,0,1,0,0)"
>
</g>

<g fill="#B7BFC6" fill-opacity="1" stroke="#B7BFC6" stroke-opacity="1" stroke-width="1" stroke-linecap="butt" stroke-linejoin="miter" stroke-miterlimit="2" transform="matrix(1,0,0,1,0,0)"
>
</g>

<g fill="#B7BFC6" fill-opacity="1" stroke="#B7BFC6" stroke-opacity="1" stroke-width="1" stroke-linecap="butt" stroke-linejoin="miter" stroke-miterlimit="2" transform="matrix(1,0,0,1,0,0)"
>
</g>

<g fill="#B7BFC6" fill-opacity="1" stroke="#B7BFC6" stroke-opacity="1" stroke-width="1" stroke-linecap="butt" stroke-linejoin="miter" stroke-miterlimit="2" transform="matrix(1,0,0,1,0,0)"
>
</g>

<g fill="#B7BFC6" fill-opacity="1" stroke="#B7BFC6" stroke-opacity="1" stroke-width="1" stroke-linecap="butt" stroke-linejoin="miter" stroke-miterlimit="2" transform="matrix(0.75,0,0,0.75,8,16)"
>
</g>

<g fill="#B7BFC6" fill-opacity="1" stroke="none" transform="matrix(0.75,0,0,0.75,8,16)"
>
<path vector-effect="none" fill-rule="nonzero" d="M31,8 L1,8 C0.4,8 0,7.6 0,7 C0,6.4 0.4,6 1,6 L31,6 C31.6,6 32,6.4 32,7 C32,7.6 31.6,8 31,8 M23,14 L1,14 C0.4,14 0,13.6 0,13 C0,12.4 0.4,12 1,12 L23,12 C23.6,12 24,12.4 24,13 C24,13.6 23.6,14 23,14 M27,20 L1,20 C0.4,20 0,19.6 0,19 C0,18.4 0.4,18 1,18 L27,18 C27.6,18 28,18.4 28,19 C28,19.6 27.6,20 27,20 M19,26 L1,26 C0.4,26 0,25.6 0,25 C0,24.4 0.4,24 1,24 L19,24 C19.6,24 20,24.4 20,25 C20,25.6 19.6,26 19,26 "/>
</g>

<g fill="#B7BFC6" fill-opacity="1" stroke="#B7BFC6" stroke-opacity="1" stroke-width="1" stroke-linecap="butt" stroke-linejoin="miter" stroke-miterlimit="2" transform="matrix(0.75,0,0,0.75,8,16)"
>
</g>

<g fill="#B7BFC6" fill-opacity="1" stroke="#B7BFC6" stroke-opacity="1" stroke-width="1" stroke-linecap="butt" stroke-linejoin="miter" stroke-miterlimit="2" transform="matrix(0.75,0,0,0.75,8,16)"
>
</g>

<g fill="#B7BFC6" fill-opacity="1" stroke="#B7BFC6" stroke-opacity="1" stroke-width="1" stroke-linecap="butt" stroke-linejoin="miter" stroke-miterlimit="2" transform="matrix(1,0,0,1,0,0)"
>
</g>

<g fill="#B7BFC6" fill-opacity="1" stroke="#B7BFC6" stroke-opacity="1" stroke-width="1" stroke-linecap="butt" stroke-linejoin="miter" stroke-miterlimit="2" transform="matrix(1,0,0,1,0,0)"
>
</g>

<g fill="#B7BFC6" fill-opacity="1" stroke="#B7BFC6" stroke-opacity="1" stroke-width="1" stroke-linecap="butt" stroke-linejoin="miter" stroke-miterlimit="2" transform="matrix(1,0,0,1,0,0)"
>
</g>

<g fill="#B7BFC6" fill-opacity="1" stroke="#B7BFC6" stroke-opacity="1" stroke-width="1" stroke-linecap="butt" stroke-linejoin="miter" stroke-miterlimit="2" transform="matrix(1,0,0,1,0,0)"
>
</g>

<g fill="#B7BFC6" fill-opacity="1" stroke="#B7BFC6" stroke-opacity="1" stroke-width="1" stroke-linecap="butt" stroke-linejoin="miter" stroke-miterlimit="2" transform="matrix(0.75,0,0,0.75,8,16)"
>
</g>

<g fill="#B7BFC6" fill-opacity="1" stroke="#B7BFC6" stroke-opacity="1" stroke-width="1" stroke-linecap="butt" stroke-linejoin="miter" stroke-miterlimit="2" transform="matrix(1,0,0,1,0,0)"
>
</g>

<g fill="#B7BFC6" fill-opacity="1" stroke="#B7BFC6" stroke-opacity="1" stroke-width="1" stroke-linecap="butt" stroke-linejoin="miter" stroke-miterlimit="2" transform="matrix(1,0,0,1,0,0)"
>
</g>

<g fill="#B7BFC6" fill-opacity="1" stroke="#B7BFC6" stroke-opacity="1" stroke-width="1" stroke-linecap="butt" stroke-linejoin="miter" stroke-miterlimit="2" transform="matrix(1,0,0,1,0,0)"
>
</g>

<g fill="#B7BFC6" fill-opacity="1" stroke="#B7BFC6" stroke-opacity="1" stroke-width="1" stroke-linecap="butt" stroke-linejoin="miter" stroke-miterlimit="2" transform="matrix(1,0,0,1,0,0)"
>
</g>

<g fill="#B7BFC6" fill-opacity="1" stroke="#B7BFC6" stroke-opacity="1" stroke-width="1" stroke-linecap="butt" stroke-linejoin="miter" stroke-miterlimit="2" transform="matrix(1,0,0,1,0,0)"
>
</g>

<g fill="#B7BFC6" fill-opacity="1" stroke="#B7BFC6" stroke-opacity="1" stroke-width="1" stroke-linecap="butt" stroke-linejoin="miter" stroke-miterlimit="2" transform="matrix(1,0,0,1,0,0)"
>
</g>
</g>
</svg>
