<?xml version="1.0" encoding="UTF-8" standalone="no"?>
<svg width="7.9375mm" height="7.9375mm"
 xmlns="http://www.w3.org/2000/svg" xmlns:xlink="http://www.w3.org/1999/xlink"  version="1.2" baseProfile="tiny">
<desc>Created by EvoPdf</desc>
<defs>
</defs>
<g fill="none" stroke="black" stroke-width="1" fill-rule="evenodd" stroke-linecap="square" stroke-linejoin="bevel" >

<g fill="#B7BFC6" fill-opacity="1" stroke="#B7BFC6" stroke-opacity="1" stroke-width="1" stroke-linecap="butt" stroke-linejoin="miter" stroke-miterlimit="2" transform="matrix(1,0,0,1,0,0)"
>
</g>

<g fill="#B7BFC6" fill-opacity="1" stroke="#B7BFC6" stroke-opacity="1" stroke-width="1" stroke-linecap="butt" stroke-linejoin="miter" stroke-miterlimit="2" transform="matrix(1,0,0,1,0,0)"
>
</g>

<g fill="#B7BFC6" fill-opacity="1" stroke="#B7BFC6" stroke-opacity="1" stroke-width="1" stroke-linecap="butt" stroke-linejoin="miter" stroke-miterlimit="2" transform="matrix(1,0,0,1,0,0)"
>
</g>

<g fill="#B7BFC6" fill-opacity="1" stroke="#B7BFC6" stroke-opacity="1" stroke-width="1" stroke-linecap="butt" stroke-linejoin="miter" stroke-miterlimit="2" transform="matrix(1,0,0,1,0,0)"
>
</g>

<g fill="#B7BFC6" fill-opacity="1" stroke="#B7BFC6" stroke-opacity="1" stroke-width="1" stroke-linecap="butt" stroke-linejoin="miter" stroke-miterlimit="2" transform="matrix(0.4375,0,0,0.4375,8,16)"
>
</g>

<g fill="#B7BFC6" fill-opacity="1" stroke="none" transform="matrix(0.4375,0,0,0.4375,8,16)"
>
<path vector-effect="none" fill-rule="nonzero" d="M16,18 C11.6,18 8,14.4 8,10 C8,5.6 11.6,2 16,2 C20.4,2 24,5.6 24,10 C24,14.4 20.4,18 16,18 M16,4 C12.7,4 10,6.7 10,10 C10,13.3 12.7,16 16,16 C19.3,16 22,13.3 22,10 C22,6.7 19.3,4 16,4 M29,32 C28.4,32 28,31.6 28,31 L28,26.8 C28,24.2 25.8,22 23.2,22 L8.8,22 C6.2,22 4,24.2 4,26.8 L4,31 C4,31.6 3.6,32 3,32 C2.4,32 2,31.6 2,31 L2,26.8 C2,23 5,20 8.8,20 L23.2,20 C26.9,20 30,23 30,26.8 L30,31 C30,31.6 29.6,32 29,32 "/>
</g>

<g fill="#B7BFC6" fill-opacity="1" stroke="#B7BFC6" stroke-opacity="1" stroke-width="1" stroke-linecap="butt" stroke-linejoin="miter" stroke-miterlimit="2" transform="matrix(0.4375,0,0,0.4375,8,16)"
>
</g>

<g fill="#B7BFC6" fill-opacity="1" stroke="#B7BFC6" stroke-opacity="1" stroke-width="1" stroke-linecap="butt" stroke-linejoin="miter" stroke-miterlimit="2" transform="matrix(0.4375,0,0,0.4375,8,16)"
>
</g>

<g fill="#B7BFC6" fill-opacity="1" stroke="#B7BFC6" stroke-opacity="1" stroke-width="1" stroke-linecap="butt" stroke-linejoin="miter" stroke-miterlimit="2" transform="matrix(1,0,0,1,0,0)"
>
</g>

<g fill="#B7BFC6" fill-opacity="1" stroke="#B7BFC6" stroke-opacity="1" stroke-width="1" stroke-linecap="butt" stroke-linejoin="miter" stroke-miterlimit="2" transform="matrix(1,0,0,1,0,0)"
>
</g>

<g fill="#B7BFC6" fill-opacity="1" stroke="#B7BFC6" stroke-opacity="1" stroke-width="1" stroke-linecap="butt" stroke-linejoin="miter" stroke-miterlimit="2" transform="matrix(1,0,0,1,0,0)"
>
</g>

<g fill="#B7BFC6" fill-opacity="1" stroke="#B7BFC6" stroke-opacity="1" stroke-width="1" stroke-linecap="butt" stroke-linejoin="miter" stroke-miterlimit="2" transform="matrix(1,0,0,1,0,0)"
>
</g>

<g fill="#B7BFC6" fill-opacity="1" stroke="#B7BFC6" stroke-opacity="1" stroke-width="1" stroke-linecap="butt" stroke-linejoin="miter" stroke-miterlimit="2" transform="matrix(0.4375,0,0,0.4375,8,16)"
>
</g>

<g fill="#B7BFC6" fill-opacity="1" stroke="#B7BFC6" stroke-opacity="1" stroke-width="1" stroke-linecap="butt" stroke-linejoin="miter" stroke-miterlimit="2" transform="matrix(1,0,0,1,0,0)"
>
</g>

<g fill="#B7BFC6" fill-opacity="1" stroke="#B7BFC6" stroke-opacity="1" stroke-width="1" stroke-linecap="butt" stroke-linejoin="miter" stroke-miterlimit="2" transform="matrix(1,0,0,1,0,0)"
>
</g>

<g fill="#B7BFC6" fill-opacity="1" stroke="#B7BFC6" stroke-opacity="1" stroke-width="1" stroke-linecap="butt" stroke-linejoin="miter" stroke-miterlimit="2" transform="matrix(1,0,0,1,0,0)"
>
</g>

<g fill="#B7BFC6" fill-opacity="1" stroke="#B7BFC6" stroke-opacity="1" stroke-width="1" stroke-linecap="butt" stroke-linejoin="miter" stroke-miterlimit="2" transform="matrix(1,0,0,1,0,0)"
>
</g>

<g fill="#B7BFC6" fill-opacity="1" stroke="#B7BFC6" stroke-opacity="1" stroke-width="1" stroke-linecap="butt" stroke-linejoin="miter" stroke-miterlimit="2" transform="matrix(1,0,0,1,0,0)"
>
</g>

<g fill="#B7BFC6" fill-opacity="1" stroke="#B7BFC6" stroke-opacity="1" stroke-width="1" stroke-linecap="butt" stroke-linejoin="miter" stroke-miterlimit="2" transform="matrix(1,0,0,1,0,0)"
>
</g>
</g>
</svg>
