<?xml version="1.0" encoding="UTF-8" standalone="no"?>
<svg width="7.9375mm" height="7.9375mm"
 xmlns="http://www.w3.org/2000/svg" xmlns:xlink="http://www.w3.org/1999/xlink"  version="1.2" baseProfile="tiny">
<desc>Created by EvoPdf</desc>
<defs>
</defs>
<g fill="none" stroke="black" stroke-width="1" fill-rule="evenodd" stroke-linecap="square" stroke-linejoin="bevel" >

<g fill="#646F79" fill-opacity="1" stroke="#646F79" stroke-opacity="1" stroke-width="1" stroke-linecap="butt" stroke-linejoin="miter" stroke-miterlimit="2" transform="matrix(1,0,0,1,0,0)"
>
</g>

<g fill="#646F79" fill-opacity="1" stroke="#646F79" stroke-opacity="1" stroke-width="1" stroke-linecap="butt" stroke-linejoin="miter" stroke-miterlimit="2" transform="matrix(1,0,0,1,0,0)"
>
</g>

<g fill="#646F79" fill-opacity="1" stroke="#646F79" stroke-opacity="1" stroke-width="1" stroke-linecap="butt" stroke-linejoin="miter" stroke-miterlimit="2" transform="matrix(1,0,0,1,0,0)"
>
</g>

<g fill="#646F79" fill-opacity="1" stroke="#646F79" stroke-opacity="1" stroke-width="1" stroke-linecap="butt" stroke-linejoin="miter" stroke-miterlimit="2" transform="matrix(1,0,0,1,0,0)"
>
</g>

<g fill="#646F79" fill-opacity="1" stroke="#646F79" stroke-opacity="1" stroke-width="1" stroke-linecap="butt" stroke-linejoin="miter" stroke-miterlimit="2" transform="matrix(0.4375,0,0,0.4375,8,16)"
>
</g>

<g fill="#646F79" fill-opacity="1" stroke="none" transform="matrix(0.4375,0,0,0.4375,8,16)"
>
<path vector-effect="none" fill-rule="nonzero" d="M26,14 L18,14 L18,6 C18,4.9 17.1,4 16,4 C14.9,4 14,4.9 14,6 L14,14 L6,14 C4.9,14 4,14.9 4,16 C4,17.1 4.9,18 6,18 L14,18 L14,26 C14,27.1 14.9,28 16,28 C17.1,28 18,27.1 18,26 L18,18 L26,18 C27.1,18 28,17.1 28,16 C28,14.9 27.1,14 26,14 "/>
</g>

<g fill="#646F79" fill-opacity="1" stroke="#646F79" stroke-opacity="1" stroke-width="1" stroke-linecap="butt" stroke-linejoin="miter" stroke-miterlimit="2" transform="matrix(0.4375,0,0,0.4375,8,16)"
>
</g>

<g fill="#646F79" fill-opacity="1" stroke="#646F79" stroke-opacity="1" stroke-width="1" stroke-linecap="butt" stroke-linejoin="miter" stroke-miterlimit="2" transform="matrix(0.4375,0,0,0.4375,8,16)"
>
</g>

<g fill="#646F79" fill-opacity="1" stroke="#646F79" stroke-opacity="1" stroke-width="1" stroke-linecap="butt" stroke-linejoin="miter" stroke-miterlimit="2" transform="matrix(1,0,0,1,0,0)"
>
</g>

<g fill="#646F79" fill-opacity="1" stroke="#646F79" stroke-opacity="1" stroke-width="1" stroke-linecap="butt" stroke-linejoin="miter" stroke-miterlimit="2" transform="matrix(1,0,0,1,0,0)"
>
</g>

<g fill="#646F79" fill-opacity="1" stroke="#646F79" stroke-opacity="1" stroke-width="1" stroke-linecap="butt" stroke-linejoin="miter" stroke-miterlimit="2" transform="matrix(1,0,0,1,0,0)"
>
</g>

<g fill="#646F79" fill-opacity="1" stroke="#646F79" stroke-opacity="1" stroke-width="1" stroke-linecap="butt" stroke-linejoin="miter" stroke-miterlimit="2" transform="matrix(1,0,0,1,0,0)"
>
</g>

<g fill="#646F79" fill-opacity="1" stroke="#646F79" stroke-opacity="1" stroke-width="1" stroke-linecap="butt" stroke-linejoin="miter" stroke-miterlimit="2" transform="matrix(0.4375,0,0,0.4375,8,16)"
>
</g>

<g fill="#646F79" fill-opacity="1" stroke="#646F79" stroke-opacity="1" stroke-width="1" stroke-linecap="butt" stroke-linejoin="miter" stroke-miterlimit="2" transform="matrix(1,0,0,1,0,0)"
>
</g>

<g fill="#646F79" fill-opacity="1" stroke="#646F79" stroke-opacity="1" stroke-width="1" stroke-linecap="butt" stroke-linejoin="miter" stroke-miterlimit="2" transform="matrix(1,0,0,1,0,0)"
>
</g>

<g fill="#646F79" fill-opacity="1" stroke="#646F79" stroke-opacity="1" stroke-width="1" stroke-linecap="butt" stroke-linejoin="miter" stroke-miterlimit="2" transform="matrix(1,0,0,1,0,0)"
>
</g>

<g fill="#646F79" fill-opacity="1" stroke="#646F79" stroke-opacity="1" stroke-width="1" stroke-linecap="butt" stroke-linejoin="miter" stroke-miterlimit="2" transform="matrix(1,0,0,1,0,0)"
>
</g>

<g fill="#646F79" fill-opacity="1" stroke="#646F79" stroke-opacity="1" stroke-width="1" stroke-linecap="butt" stroke-linejoin="miter" stroke-miterlimit="2" transform="matrix(1,0,0,1,0,0)"
>
</g>

<g fill="#646F79" fill-opacity="1" stroke="#646F79" stroke-opacity="1" stroke-width="1" stroke-linecap="butt" stroke-linejoin="miter" stroke-miterlimit="2" transform="matrix(1,0,0,1,0,0)"
>
</g>
</g>
</svg>
